<?xml version="1.0" standalone="no"?><!DOCTYPE svg PUBLIC "-//W3C//DTD SVG 1.1//EN" "http://www.w3.org/Graphics/SVG/1.1/DTD/svg11.dtd"><svg t="1556088125759" class="icon" style="" viewBox="0 0 1024 1024" version="1.1" xmlns="http://www.w3.org/2000/svg" p-id="4672" xmlns:xlink="http://www.w3.org/1999/xlink" width="200" height="200"><defs><style type="text/css"></style></defs><path d="M1006.953842 473.913592a51.868276 51.868276 0 0 1 0 75.468021l-179.076661 168.843709a53.019483 53.019483 0 0 1-36.518847 14.454045 53.019483 53.019483 0 0 1-38.245659-16.116899 51.676408 51.676408 0 0 1 1.726811-73.805167l83.718339-78.985599H352.68447A52.571791 52.571791 0 0 1 299.792899 511.647603c0-28.780178 23.663702-52.188055 52.891571-52.188056h485.873355L754.711574 380.473949a51.676408 51.676408 0 0 1-1.662855-73.805167 53.403219 53.403219 0 0 1 74.828462-1.662855l179.076661 168.843709z m-198.007622 338.646757c29.163913 0 52.891571 23.343922 52.891571 52.188056v106.358745c0 28.780178-23.663702 52.188055-52.891571 52.188055H52.986887A52.571791 52.571791 0 0 1 0.03136 971.10715V52.188055C0.03136 23.343922 23.695062 0 52.922931 0h755.959333c29.227869 0 52.955527 23.343922 52.955527 52.188055v106.29479c0 28.844134-23.663702 52.188055-52.891571 52.188055a52.571791 52.571791 0 0 1-52.891571-52.188055v-54.106734H105.814502v814.542983h650.240147v-54.170689c0-28.780178 23.663702-52.188055 52.891571-52.188056z" p-id="4673"></path></svg>